<svg id="Group_29" data-name="Group 29" xmlns="http://www.w3.org/2000/svg" width="244.965" height="69.847" viewBox="0 0 244.965 69.847">
  <g id="Group_26" data-name="Group 26" transform="translate(0)">
    <path id="Path_98" data-name="Path 98" d="M469.426,532.731V556.5h-3.5v-20.28Z" transform="translate(-382.984 -532.731)" fill="#002b52"/>
    <path id="Path_99" data-name="Path 99" d="M536.4,533.918V555.9h-3.5v-17.65l-5.411,17.65h-3.849l-5.411-17.842V555.9h-3.5V533.918h5.169l5.662,18.28,5.661-18.28Z" transform="translate(-358.6 -532.138)" fill="#002b52"/>
    <path id="Path_100" data-name="Path 100" d="M504.487,532.731V556.5h-3.5v-9.741h-9.113V556.5h-3.5V534.522h3.5v9.072h9.113V536.26Z" transform="translate(-371.768 -532.731)" fill="#002b52"/>
    <path id="Path_101" data-name="Path 101" d="M548.145,552.783h9.729V555.9H544.646V533.918h13.843l-3.115,3.143h-7.229v5.877h8.761v3.136h-8.761Z" transform="translate(-343.658 -532.138)" fill="#002b52"/>
    <path id="Path_102" data-name="Path 102" d="M467.6,555.9h3.7l-7.97-21.985h-3.881L451.473,555.9h3.7l1.808-5.484h8.812Zm-9.587-8.62,3.373-10.23,3.371,10.23Z" transform="translate(-390.207 -532.138)" fill="#002b52"/>
    <path id="Path_103" data-name="Path 103" d="M516.421,555.9h3.7l-7.969-21.985h-3.879L500.3,555.9H504l1.807-5.484h8.812Zm-9.584-8.62,3.373-10.23,3.371,10.23Z" transform="translate(-365.813 -532.138)" fill="#002b52"/>
    <path id="Path_104" data-name="Path 104" d="M443.489,532.731v14.8c0,5.147-2.192,9.309-9.094,9.333v0l-.03,0-.031,0v0c-6.9-.024-9.092-4.187-9.071-9.333V534.495h3.5v12.916c0,3.781,1.662,6.28,5.607,6.292,3.945-.012,5.629-2.512,5.629-6.292V536.23Z" transform="translate(-403.301 -532.731)" fill="#002b52"/>
    <path id="Path_105" data-name="Path 105" d="M479.013,544.912c0-1.843.568-7.847,7.88-7.847H490.1l2.356-3.146h-6.235c-6.709,0-10.7,4.317-10.7,10.994s3.987,10.992,10.7,10.992h5.451v-3.149h-4.782c-7.312,0-7.88-6-7.88-7.843" transform="translate(-378.189 -532.138)" fill="#002b52"/>
    <path id="Path_106" data-name="Path 106" d="M456.182,549.412a6.468,6.468,0,0,0-2.675-5.231,6.062,6.062,0,0,0,1.695-4.2,5.95,5.95,0,0,0-6.1-6.061h-8.92V555.9h9.546a6.519,6.519,0,0,0,6.456-6.49m-7.083-12.36a2.659,2.659,0,0,1,2.6,2.927,2.688,2.688,0,0,1-2.6,2.959h-5.422v-5.886Zm.553,15.716h-5.976v-6.694h5.976a3.363,3.363,0,0,1,0,6.694" transform="translate(-395.849 -532.138)" fill="#002b52"/>
    <path id="Path_107" data-name="Path 107" d="M547.965,549.412a6.466,6.466,0,0,0-2.672-5.231,6.066,6.066,0,0,0,1.692-4.2,5.95,5.95,0,0,0-6.1-6.061h-8.918V555.9h9.545a6.517,6.517,0,0,0,6.453-6.49m-7.08-12.36a2.658,2.658,0,0,1,2.6,2.927,2.687,2.687,0,0,1-2.6,2.959h-5.424v-5.886Zm.552,15.716h-5.976v-6.694h5.976a3.363,3.363,0,0,1,0,6.694" transform="translate(-349.992 -532.138)" fill="#002b52"/>
    <path id="Path_108" data-name="Path 108" d="M571.469,555.9l-5.145-10.155a5.8,5.8,0,0,0,4.146-5.769,6.087,6.087,0,0,0-6.1-6.061h-8.918V555.9h3.494v-9.83h3.987l4.7,9.83Zm-12.522-18.85h5.424a2.662,2.662,0,0,1,2.606,2.926,2.69,2.69,0,0,1-2.606,2.959h-5.424Z" transform="translate(-338.259 -532.138)" fill="#002b52"/>
    <g id="Group_25" data-name="Group 25" transform="translate(0 1.78)">
      <path id="Path_109" data-name="Path 109" d="M422.634,534.243l-2.729,2.729c5.331,1.038,6.163,6.046,6.163,7.7,0,1.852-.942,7.912-8.251,7.927h-7.2v3.14h7.9c6.709-.009,11.044-4.35,11.044-11.067,0-5.22-2.615-9-6.93-10.431" transform="translate(-410.618 -533.756)" fill="#002b52"/>
      <path id="Path_110" data-name="Path 110" d="M413.786,537.086h3.137l3.168-3.168h-9.473v9.473l3.168-3.168Z" transform="translate(-410.618 -533.918)" fill="#74af0d"/>
    </g>
  </g>
  <g id="Group_28" data-name="Group 28" transform="translate(81.623 34.7)">
    <g id="Group_27" data-name="Group 27" transform="translate(11.058 10.742)">
      <path id="Path_111" data-name="Path 111" d="M472.422,563.241h2.284v13.042h-2.284Z" transform="translate(-472.422 -562.931)" fill="#74af0d"/>
      <path id="Path_112" data-name="Path 112" d="M475.747,563.241h2.411l5.955,9.608h.036v-9.608h2.174v13.042h-2.411l-5.937-9.59h-.054v9.59h-2.174Z" transform="translate(-470.761 -562.931)" fill="#74af0d"/>
      <path id="Path_113" data-name="Path 113" d="M483.774,563.241h10.559v1.972h-4.148v11.07H487.9v-11.07h-4.128Z" transform="translate(-466.751 -562.931)" fill="#74af0d"/>
      <path id="Path_114" data-name="Path 114" d="M491.826,563.241h9.387v1.972h-7.105v3.416h6.576v1.864h-6.576v3.816h7.234v1.973h-9.516Z" transform="translate(-462.728 -562.931)" fill="#74af0d"/>
      <path id="Path_115" data-name="Path 115" d="M499.5,563.241h6.229a4.834,4.834,0,0,1,3.233.931,3.247,3.247,0,0,1,1.078,2.594,3.805,3.805,0,0,1-.274,1.543,3.37,3.37,0,0,1-.64.987,2.482,2.482,0,0,1-.721.538,5.583,5.583,0,0,1-.52.219v.038a2.255,2.255,0,0,1,.63.183,1.866,1.866,0,0,1,.631.465,2.583,2.583,0,0,1,.484.831,3.692,3.692,0,0,1,.19,1.279,11.586,11.586,0,0,0,.174,2.092,2.758,2.758,0,0,0,.538,1.342h-2.447a2.121,2.121,0,0,1-.3-.931c-.03-.34-.045-.67-.045-.987a9.517,9.517,0,0,0-.109-1.543,2.725,2.725,0,0,0-.4-1.078,1.7,1.7,0,0,0-.795-.63,3.491,3.491,0,0,0-1.288-.2h-3.361v5.37H499.5Zm2.284,5.937h3.745a2.376,2.376,0,0,0,1.662-.52,2.021,2.021,0,0,0,.567-1.563,2.422,2.422,0,0,0-.183-1.014,1.468,1.468,0,0,0-.5-.612,1.842,1.842,0,0,0-.73-.292,4.929,4.929,0,0,0-.85-.073h-3.707Z" transform="translate(-458.894 -562.931)" fill="#74af0d"/>
      <path id="Path_116" data-name="Path 116" d="M508.013,563.241h2.411l5.955,9.608h.038v-9.608h2.173v13.042h-2.411l-5.935-9.59h-.055v9.59h-2.174Z" transform="translate(-454.641 -562.931)" fill="#74af0d"/>
      <path id="Path_117" data-name="Path 117" d="M520.862,563.241h2.429l5.024,13.042h-2.447l-1.224-3.452h-5.207l-1.224,3.452h-2.356Zm-.8,7.855h3.983l-1.956-5.608h-.054Z" transform="translate(-450.722 -562.931)" fill="#74af0d"/>
      <path id="Path_118" data-name="Path 118" d="M523.044,563.241H533.6v1.972h-4.146v11.07h-2.284v-11.07h-4.128Z" transform="translate(-447.131 -562.931)" fill="#74af0d"/>
      <path id="Path_119" data-name="Path 119" d="M531.1,563.241h2.282v13.042H531.1Z" transform="translate(-443.109 -562.931)" fill="#74af0d"/>
      <path id="Path_120" data-name="Path 120" d="M540.266,563.034a6.077,6.077,0,0,1,2.621.547,5.884,5.884,0,0,1,1.963,1.48,6.582,6.582,0,0,1,1.233,2.174,8.307,8.307,0,0,1,0,5.279,6.59,6.59,0,0,1-1.233,2.173,5.781,5.781,0,0,1-1.963,1.471,6.65,6.65,0,0,1-5.243,0,5.767,5.767,0,0,1-1.963-1.471,6.565,6.565,0,0,1-1.234-2.173,8.334,8.334,0,0,1,0-5.279,6.558,6.558,0,0,1,1.234-2.174,5.87,5.87,0,0,1,1.963-1.48A6.077,6.077,0,0,1,540.266,563.034Zm0,1.862a3.669,3.669,0,0,0-1.8.42,3.526,3.526,0,0,0-1.233,1.125,5.053,5.053,0,0,0-.7,1.6,7.439,7.439,0,0,0,0,3.655,5.052,5.052,0,0,0,.7,1.6,3.51,3.51,0,0,0,1.233,1.123,4.053,4.053,0,0,0,3.6,0,3.51,3.51,0,0,0,1.233-1.123,5.085,5.085,0,0,0,.7-1.6,7.439,7.439,0,0,0,0-3.655,5.086,5.086,0,0,0-.7-1.6,3.526,3.526,0,0,0-1.233-1.125A3.669,3.669,0,0,0,540.266,564.9Z" transform="translate(-441.648 -563.034)" fill="#74af0d"/>
      <path id="Path_121" data-name="Path 121" d="M543.678,563.241h2.411l5.955,9.608h.036v-9.608h2.174v13.042h-2.411l-5.935-9.59h-.055v9.59h-2.174Z" transform="translate(-436.823 -562.931)" fill="#74af0d"/>
      <path id="Path_122" data-name="Path 122" d="M556.527,563.241h2.429l5.024,13.042h-2.447l-1.225-3.452H555.1l-1.224,3.452h-2.356Zm-.8,7.855h3.983l-1.955-5.608H557.7Z" transform="translate(-432.904 -562.931)" fill="#74af0d"/>
      <path id="Path_123" data-name="Path 123" d="M560.658,563.241h2.284V574.31h6.63v1.973h-8.914Z" transform="translate(-428.34 -562.931)" fill="#74af0d"/>
    </g>
    <path id="Path_124" data-name="Path 124" d="M570.823,576.159h3.137l3.168-3.168h-9.473v9.473l3.168-3.168Z" transform="translate(-413.786 -547.317)" fill="#74af0d"/>
    <path id="Path_125" data-name="Path 125" d="M471.353,562.176h-3.137l-3.168,3.168h9.473V555.87l-3.168,3.168Z" transform="translate(-465.048 -555.87)" fill="#74af0d"/>
  </g>
</svg>
