<svg xmlns="http://www.w3.org/2000/svg" width="168.017" height="42.362" viewBox="0 0 168.017 42.362">
  <g id="Group_18" data-name="Group 18" transform="translate(-94.549 -33.759)">
    <path id="Path_29" data-name="Path 29" d="M140.7,54.438V70.346h-2.34V56.771Z" transform="translate(11.712 5.528)" fill="#fff"/>
    <path id="Path_30" data-name="Path 30" d="M191.519,55.378V70.094h-2.34V58.279l-3.622,11.815H182.98l-3.621-11.943V70.094h-2.341V55.378h3.461l3.789,12.236,3.791-12.236Z" transform="translate(22.047 5.78)" fill="#fff"/>
    <path id="Path_31" data-name="Path 31" d="M166.924,54.438V70.346h-2.341V63.825h-6.1v6.521h-2.34V55.636h2.34v6.073h6.1V56.8Z" transform="translate(16.466 5.528)" fill="#fff"/>
    <path id="Path_32" data-name="Path 32" d="M203.05,68.006h6.514v2.089h-8.855V55.378h9.266l-2.086,2.1H203.05v3.934h5.864v2.1H203.05Z" transform="translate(28.381 5.78)" fill="#fff"/>
    <path id="Path_33" data-name="Path 33" d="M137.7,70.094h2.474l-5.334-14.716h-2.6l-5.334,14.716h2.474l1.21-3.67h5.9Zm-6.417-5.77,2.257-6.847,2.257,6.847Z" transform="translate(8.651 5.78)" fill="#fff"/>
    <path id="Path_34" data-name="Path 34" d="M176.374,70.094h2.475l-5.334-14.716h-2.6l-5.334,14.716h2.474l1.209-3.67h5.9Zm-6.415-5.77,2.257-6.847,2.257,6.847Z" transform="translate(18.99 5.78)" fill="#fff"/>
    <path id="Path_35" data-name="Path 35" d="M118.35,54.438v9.906c0,3.445-1.469,6.23-6.087,6.248h-.042c-4.618-.018-6.086-2.8-6.072-6.248V55.618h2.34v8.646c0,2.531,1.113,4.205,3.753,4.213,2.642-.008,3.769-1.682,3.769-4.213V56.779Z" transform="translate(3.101 5.528)" fill="#fff"/>
    <path id="Path_36" data-name="Path 36" d="M148.3,62.736c0-1.233.38-5.252,5.275-5.252h2.149l1.577-2.106h-4.173c-4.491,0-7.16,2.89-7.16,7.358s2.669,7.358,7.16,7.358h3.649V67.987h-3.2c-4.894,0-5.275-4.019-5.275-5.251" transform="translate(13.745 5.78)" fill="#fff"/>
    <path id="Path_37" data-name="Path 37" d="M128.676,65.749a4.327,4.327,0,0,0-1.789-3.5,4.068,4.068,0,0,0,1.133-2.813,3.982,3.982,0,0,0-4.083-4.057h-5.972V70.094h6.391a4.362,4.362,0,0,0,4.32-4.344m-4.74-8.273a1.779,1.779,0,0,1,1.743,1.959,1.8,1.8,0,0,1-1.743,1.981H120.3v-3.94ZM124.3,68h-4V63.514h4a2.251,2.251,0,0,1,0,4.481" transform="translate(6.26 5.78)" fill="#fff"/>
    <path id="Path_38" data-name="Path 38" d="M201.375,65.749a4.327,4.327,0,0,0-1.789-3.5,4.067,4.067,0,0,0,1.132-2.813,3.981,3.981,0,0,0-4.082-4.057h-5.969V70.094h6.389a4.362,4.362,0,0,0,4.32-4.344m-4.74-8.273a1.779,1.779,0,0,1,1.744,1.959,1.8,1.8,0,0,1-1.744,1.981H193v-3.94ZM197,68h-4V63.514h4A2.252,2.252,0,0,1,197,68" transform="translate(25.696 5.78)" fill="#fff"/>
    <path id="Path_39" data-name="Path 39" d="M219.988,70.094l-3.443-6.8a3.879,3.879,0,0,0,2.775-3.86,4.075,4.075,0,0,0-4.082-4.058h-5.97V70.094h2.338v-6.58h2.67l3.148,6.58Zm-8.382-12.618h3.632a1.782,1.782,0,0,1,1.744,1.959,1.8,1.8,0,0,1-1.744,1.98h-3.632Z" transform="translate(30.669 5.78)" fill="#fff"/>
    <path id="Path_40" data-name="Path 40" d="M197.315,37.106a4.97,4.97,0,0,0-5.04,4.95,5.048,5.048,0,0,0,5.04,5.044h3.309a2.82,2.82,0,0,1-2.948,2.625H164.926a2.864,2.864,0,0,1-2.94-2.779V39.238l-2.34,2.345v4.441a7.456,7.456,0,0,0,.735,3.466,4.854,4.854,0,0,0,4.19,2.337h33.4c2.351,0,5-1.222,5-5.154V37.106ZM200.629,45h-3.314a2.751,2.751,0,0,1-2.7-2.94,2.663,2.663,0,0,1,2.7-2.836h3.314Z" transform="translate(17.402 0.895)" fill="#fff"/>
    <path id="Path_41" data-name="Path 41" d="M229.153,64.585a3.6,3.6,0,0,0-.487-1.033,3.7,3.7,0,0,0-.812-.855,3.825,3.825,0,0,0-1.141-.591q-.262-.078-.869-.246l-1.243-.345c-.425-.118-.807-.226-1.151-.324l-.588-.167a2.8,2.8,0,0,1-1.149-.639,1.547,1.547,0,0,1-.44-1.171,1.453,1.453,0,0,1,.233-.76,1.9,1.9,0,0,1,1.4-.893,4.474,4.474,0,0,1,.82-.071l3.284,0,2.085-2.108h-5.276a6.525,6.525,0,0,0-1.776.246,4.753,4.753,0,0,0-1.57.757,3.876,3.876,0,0,0-1.113,1.289,3.8,3.8,0,0,0-.421,1.84,4.268,4.268,0,0,0,.139,1.082,3.075,3.075,0,0,0,.478,1,3.469,3.469,0,0,0,.906.857,4.841,4.841,0,0,0,1.431.62q1.382.394,2.327.639a15.393,15.393,0,0,1,1.655.522,1.977,1.977,0,0,1,.757.541,1.736,1.736,0,0,1,.346,1.19,1.9,1.9,0,0,1-.15.664,1.633,1.633,0,0,1-.485.679,2.6,2.6,0,0,1-.88.482,3.988,3.988,0,0,1-1.308.2h-4.836v2.108h4.808v0a7.808,7.808,0,0,0,1.822-.242,5.12,5.12,0,0,0,1.7-.777,4.027,4.027,0,0,0,1.205-1.367,4.143,4.143,0,0,0,.458-2.016A3.945,3.945,0,0,0,229.153,64.585Z" transform="translate(33.254 5.78)" fill="#fff"/>
    <g id="Group_16" data-name="Group 16" transform="translate(94.549 61.157)">
      <path id="Path_42" data-name="Path 42" d="M102.593,55.635l-1.828,1.828a5.3,5.3,0,0,1-1.4,10.461h-4.82v2.1h5.29c4.49-.006,7.392-2.911,7.392-7.408,0-3.494-1.75-6.024-4.638-6.983" transform="translate(-94.549 -55.309)" fill="#fff"/>
      <path id="Path_43" data-name="Path 43" d="M96.669,57.5h2.1l2.121-2.121H94.549v6.341L96.669,59.6Z" transform="translate(-94.549 -55.378)" fill="#d72c00"/>
    </g>
    <path id="Union_1" data-name="Union 1" d="M0,2.38V0H2.379V2.38Z" transform="translate(108.59 54.578)" fill="#fff"/>
    <path id="Union_2" data-name="Union 2" d="M0,2.38V0H2.379V2.38Z" transform="translate(150.007 54.578)" fill="#fff"/>
    <path id="Union_3" data-name="Union 3" d="M0,2.379V0H2.379V2.379Z" transform="translate(217.992 33.759)" fill="#fff"/>
    <path id="Path_47" data-name="Path 47" d="M226.368,44.806c0-1.238.38-5.3,5.272-5.3h1.611l2.127-2.12h-4.184c-4.49,0-7.392,2.92-7.392,7.416a7.264,7.264,0,0,0,1.9,5.171h-24.31V36.164l-2.34,2.338V49.987c0,2.269-1.316,4.223-4.478,4.223v2.1c3.078,0,5.75-1.422,6.635-4.23h34.616v-2.1h-4.673A4.8,4.8,0,0,1,226.368,44.806Z" transform="translate(26.741 0.643)" fill="#fff"/>
    <path id="Path_48" data-name="Path 48" d="M150.057,38.486v7.955c0,2.84-2.429,3.535-3.872,3.535H127.672v-12.6h-3.32a5.047,5.047,0,0,0-5.04,5.041c0,.029,0,.06,0,1.661h0v5.9H101.8c-2.135,0-4.91-.446-4.91-4.265V39.478l-2.34,2.334v4.211c0,5.433,4.006,6.053,6.923,6.053h20.168l.006-8h0v-.018h0V42.419a2.739,2.739,0,0,1,2.7-2.926h.967v0h.022v12.59h20.737c1.735,0,6.306-.435,6.306-5.915v-10Z" transform="translate(0.001 0.644)" fill="#fff"/>
    <path id="Union_4" data-name="Union 4" d="M0,2.38V0H2.379V2.38Z" transform="translate(105.029 54.578)" fill="#fff"/>
    <path id="Union_5" data-name="Union 5" d="M0,2.379V0H2.379V2.379Z" transform="translate(257.889 33.759)" fill="#fff"/>
    <g id="Group_17" data-name="Group 17" transform="translate(156.665 38.015)">
      <path id="Path_51" data-name="Path 51" d="M151.606,37.374,149.778,39.2a5.3,5.3,0,0,1-1.4,10.462h-4.82v2.1h5.29c4.491-.006,7.394-2.911,7.394-7.408,0-3.494-1.751-6.024-4.64-6.983" transform="translate(-143.562 -37.048)" fill="#fff"/>
      <path id="Path_52" data-name="Path 52" d="M145.683,39.238h2.1l2.121-2.121h-6.341v6.341l2.121-2.121Z" transform="translate(-143.562 -37.117)" fill="#d72c00"/>
    </g>
  </g>
</svg>
