<svg id="Group_24" data-name="Group 24" xmlns="http://www.w3.org/2000/svg" width="244.965" height="70.056" viewBox="0 0 244.965 70.056">
  <path id="Path_76" data-name="Path 76" d="M777.277,532.341v23.835h-3.506V535.837Z" transform="translate(-690.583 -532.341)" fill="#002b52"/>
  <path id="Path_77" data-name="Path 77" d="M843.683,533.513v22.049h-3.507v-17.7l-5.426,17.7h-3.86l-5.426-17.894v17.894h-3.507V533.513h5.186l5.677,18.332,5.679-18.332Z" transform="translate(-665.364 -531.728)" fill="#002b52"/>
  <path id="Path_78" data-name="Path 78" d="M812.089,532.341v23.835h-3.507v-9.77h-9.139v9.77h-3.506V534.137h3.506v9.1h9.139V535.88Z" transform="translate(-678.982 -532.341)" fill="#002b52"/>
  <path id="Path_79" data-name="Path 79" d="M854.993,552.433h9.759v3.129H851.485V533.513h13.883l-3.125,3.153h-7.25v5.894h8.785V545.7h-8.785Z" transform="translate(-649.909 -531.728)" fill="#002b52"/>
  <path id="Path_80" data-name="Path 80" d="M775.67,555.562h3.706l-7.993-22.049h-3.892L759.5,555.562h3.7l1.814-5.5h8.837Zm-9.616-8.645,3.383-10.26,3.38,10.26Z" transform="translate(-698.053 -531.728)" fill="#002b52"/>
  <path id="Path_81" data-name="Path 81" d="M823.872,555.562h3.708l-7.993-22.049H815.7L807.7,555.562h3.706l1.811-5.5h8.839Zm-9.612-8.645,3.382-10.26,3.38,10.26Z" transform="translate(-672.824 -531.728)" fill="#002b52"/>
  <path id="Path_82" data-name="Path 82" d="M751.9,532.341v14.842c0,5.161-2.2,9.335-9.12,9.361h-.062c-6.918-.026-9.117-4.2-9.1-9.361V534.11h3.505v12.955c0,3.79,1.667,6.3,5.623,6.31,3.958-.011,5.646-2.52,5.646-6.31V535.849Z" transform="translate(-711.596 -532.341)" fill="#002b52"/>
  <path id="Path_83" data-name="Path 83" d="M786.743,544.538c0-1.846.57-7.868,7.9-7.868h3.22l2.363-3.156h-6.253c-6.729,0-10.728,4.329-10.728,11.025s4,11.025,10.728,11.025h5.467V552.4h-4.8c-7.332,0-7.9-6.02-7.9-7.867" transform="translate(-685.624 -531.728)" fill="#002b52"/>
  <path id="Path_84" data-name="Path 84" d="M764.4,549.053a6.485,6.485,0,0,0-2.681-5.247,6.087,6.087,0,0,0,1.7-4.215,5.967,5.967,0,0,0-6.12-6.078h-8.947v22.049h9.576a6.537,6.537,0,0,0,6.473-6.508m-7.1-12.4a2.668,2.668,0,0,1,2.613,2.935,2.7,2.7,0,0,1-2.613,2.969h-5.438v-5.9Zm.555,15.762h-5.993V545.7h5.993a3.373,3.373,0,0,1,0,6.714" transform="translate(-703.889 -531.728)" fill="#002b52"/>
  <path id="Path_85" data-name="Path 85" d="M855.011,549.053a6.483,6.483,0,0,0-2.68-5.247,6.091,6.091,0,0,0,1.7-4.215,5.966,5.966,0,0,0-6.116-6.078h-8.944v22.049h9.573a6.536,6.536,0,0,0,6.471-6.508m-7.1-12.4a2.667,2.667,0,0,1,2.613,2.935,2.7,2.7,0,0,1-2.613,2.969h-5.44v-5.9Zm.553,15.762h-5.993V545.7h5.993a3.373,3.373,0,0,1,0,6.714" transform="translate(-656.461 -531.728)" fill="#002b52"/>
  <path id="Path_86" data-name="Path 86" d="M878.216,555.562l-5.161-10.185a5.813,5.813,0,0,0,4.159-5.784,6.106,6.106,0,0,0-6.116-6.08l-.05,0v0h-8.894v22.049h3.5V545.7h4l4.718,9.858Zm-12.559-18.905h5.44a2.67,2.67,0,0,1,2.614,2.936,2.7,2.7,0,0,1-2.614,2.968h-5.44Z" transform="translate(-644.325 -531.728)" fill="#002b52"/>
  <g id="Group_22" data-name="Group 22" transform="translate(0 1.786)">
    <path id="Path_87" data-name="Path 87" d="M731.216,533.834l-2.738,2.738c5.347,1.041,6.182,6.063,6.182,7.725,0,1.855-.944,7.934-8.275,7.949h-7.221v3.149h7.925c6.73-.009,11.078-4.361,11.078-11.1,0-5.236-2.625-9.026-6.951-10.463" transform="translate(-719.164 -533.345)" fill="#002b52"/>
    <path id="Path_88" data-name="Path 88" d="M722.341,536.69h3.147l3.177-3.177h-9.5v9.5l3.177-3.177Z" transform="translate(-719.164 -533.513)" fill="#007cd8"/>
  </g>
  <g id="Group_23" data-name="Group 23" transform="translate(166.223 45.575)">
    <path id="Path_89" data-name="Path 89" d="M828.278,562.462H833.7a6.117,6.117,0,0,1,2.6.513,4.847,4.847,0,0,1,1.8,1.4,6.027,6.027,0,0,1,1.034,2.079,9.755,9.755,0,0,1,0,5.093,6.027,6.027,0,0,1-1.034,2.079,4.846,4.846,0,0,1-1.8,1.4,6.093,6.093,0,0,1-2.6.513h-5.422Zm2.29,11.212h2.253a5.727,5.727,0,0,0,2.189-.356,3.212,3.212,0,0,0,1.338-.99,3.591,3.591,0,0,0,.66-1.484,9.849,9.849,0,0,0,0-3.682,3.59,3.59,0,0,0-.66-1.484,3.214,3.214,0,0,0-1.338-.99,5.73,5.73,0,0,0-2.189-.356h-2.253Z" transform="translate(-828.278 -562.151)" fill="#007cd8"/>
    <path id="Path_90" data-name="Path 90" d="M836.96,562.462h2.29v13.081h-2.29Z" transform="translate(-823.734 -562.151)" fill="#007cd8"/>
    <path id="Path_91" data-name="Path 91" d="M851.924,575.65h-1.465l-.349-1.54a5.443,5.443,0,0,1-1.831,1.449,5.2,5.2,0,0,1-2.107.4,6.155,6.155,0,0,1-2.629-.541,5.777,5.777,0,0,1-1.97-1.475,6.565,6.565,0,0,1-1.235-2.18,8.341,8.341,0,0,1,0-5.294,6.578,6.578,0,0,1,1.235-2.18,5.88,5.88,0,0,1,1.97-1.484,6.067,6.067,0,0,1,2.629-.55,7.13,7.13,0,0,1,2.025.283,5.416,5.416,0,0,1,1.712.844,4.662,4.662,0,0,1,1.246,1.4,4.937,4.937,0,0,1,.623,1.941h-2.235a2.9,2.9,0,0,0-.395-1.126,2.833,2.833,0,0,0-.76-.815,3.3,3.3,0,0,0-1.027-.5,4.25,4.25,0,0,0-1.19-.165,3.677,3.677,0,0,0-1.805.42,3.544,3.544,0,0,0-1.235,1.127,5.038,5.038,0,0,0-.705,1.6,7.409,7.409,0,0,0,0,3.664,5.039,5.039,0,0,0,.705,1.6,3.531,3.531,0,0,0,1.235,1.127,3.678,3.678,0,0,0,1.805.422,4.3,4.3,0,0,0,1.557-.23,3.081,3.081,0,0,0,1.146-.714,3.011,3.011,0,0,0,.705-1.146,4.833,4.833,0,0,0,.256-1.5h-3.481v-1.741h5.57Z" transform="translate(-822.192 -562.258)" fill="#007cd8"/>
    <path id="Path_92" data-name="Path 92" d="M849.43,562.462h2.291v13.081H849.43Z" transform="translate(-817.207 -562.151)" fill="#007cd8"/>
    <path id="Path_93" data-name="Path 93" d="M851.956,562.462h10.589v1.979h-4.159v11.1h-2.291v-11.1h-4.139Z" transform="translate(-815.885 -562.151)" fill="#007cd8"/>
    <path id="Path_94" data-name="Path 94" d="M862.819,562.462h2.436l5.038,13.081h-2.454l-1.228-3.463h-5.221l-1.228,3.463H857.8Zm-.806,7.878h3.993l-1.959-5.623h-.055Z" transform="translate(-812.827 -562.151)" fill="#007cd8"/>
    <path id="Path_95" data-name="Path 95" d="M866.819,562.462h2.29v11.1h6.651v1.979h-8.941Z" transform="translate(-808.106 -562.151)" fill="#007cd8"/>
  </g>
  <path id="Path_96" data-name="Path 96" d="M876.907,575.269h3.147l3.177-3.177h-9.5v9.5l3.177-3.177Z" transform="translate(-638.266 -511.536)" fill="#007cd8"/>
  <path id="Path_97" data-name="Path 97" d="M827.325,561.506h-3.147L821,564.683h9.5v-9.5l-3.177,3.177Z" transform="translate(-665.864 -520.386)" fill="#007cd8"/>
</svg>
