<svg id="Group_195" data-name="Group 195" xmlns="http://www.w3.org/2000/svg" xmlns:xlink="http://www.w3.org/1999/xlink" width="214.678" height="67.401" viewBox="0 0 214.678 67.401">
  <defs>
    <clipPath id="clip-path">
      <rect id="Rectangle_105" data-name="Rectangle 105" width="214.678" height="67.401" fill="none"/>
    </clipPath>
  </defs>
  <g id="Group_194" data-name="Group 194" clip-path="url(#clip-path)">
    <path id="Path_266" data-name="Path 266" d="M304.327,14.4a6.527,6.527,0,0,0-6.618,6.5,6.629,6.629,0,0,0,6.618,6.622h4.346c0,2.266-2.162,3.432-3.871,3.446H275.057l-.055,0a3.738,3.738,0,0,1-3.8-3.619V14.409h-6.039A7.723,7.723,0,1,0,268.4,29.153a6.384,6.384,0,0,0,4.854,4.415,5.747,5.747,0,0,0,1.336.159h30.593c3.087,0,6.567-1.6,6.567-6.768V14.4Zm-36.2,11.652-.005.057,0,.04a5,5,0,0,1-2.962.969,4.75,4.75,0,0,1-4.709-4.982,4.741,4.741,0,0,1,4.709-4.971h2.965Zm40.548-1.29h-4.351a3.612,3.612,0,0,1-3.546-3.86,3.5,3.5,0,0,1,3.546-3.725h4.351Z" transform="translate(-157.809 -8.827)" fill="#002b52"/>
    <rect id="Rectangle_98" data-name="Rectangle 98" width="3.124" height="3.124" transform="translate(18.43 27.337)" fill="#002b52"/>
    <rect id="Rectangle_99" data-name="Rectangle 99" width="3.124" height="3.124" transform="translate(64.148 27.337)" fill="#002b52"/>
    <rect id="Rectangle_100" data-name="Rectangle 100" width="3.124" height="3.124" transform="translate(150.818 0)" fill="#002b52"/>
    <path id="Path_267" data-name="Path 267" d="M438.48,21.694c0-1.626.5-6.955,6.923-6.955h2.114l2.793-2.783h-5.492c-5.9,0-9.707,3.834-9.707,9.737a9.532,9.532,0,0,0,2.495,6.789H410.071V10.346L407,13.417V28.5c0,2.978-1.728,5.544-5.88,5.544V36.8c4.042,0,7.55-1.868,8.713-5.555H450.9V28.483h-6.137c-5.815-.344-6.281-5.217-6.281-6.789" transform="translate(-245.939 -6.343)" fill="#002b52"/>
    <path id="Path_268" data-name="Path 268" d="M64.216,13.407V23.853c0,3.729-3.19,4.641-5.082,4.641H39.1V11.952h-4.36a6.626,6.626,0,0,0-6.618,6.618c0,.039,0,.078,0,2.182h0v7.742H9.519c-2.8,0-6.446-.585-6.446-5.6V14.711L0,17.776V23.3c0,7.135,5.26,7.948,9.091,7.948h22.1l.009-10.5V20.73c0-2.08,0-2.12,0-2.16a3.6,3.6,0,0,1,3.546-3.842h1.27v0h.027V31.256H58.992c2.277,0,8.28-.571,8.28-7.766V10.364Z" transform="translate(0 -6.354)" fill="#002b52"/>
    <rect id="Rectangle_101" data-name="Rectangle 101" width="3.124" height="3.124" transform="translate(13.754 27.337)" fill="#002b52"/>
    <rect id="Rectangle_102" data-name="Rectangle 102" width="3.124" height="3.124" transform="translate(198.818 0)" fill="#002b52"/>
    <path id="Path_269" data-name="Path 269" d="M198.977,15.553l-2.4,2.4c4.686.912,5.418,5.314,5.418,6.77a6.774,6.774,0,0,1-7.252,6.967h-6.328v2.76h6.945c5.9-.009,9.708-3.823,9.708-9.727,0-4.588-2.3-7.91-6.091-9.169" transform="translate(-115.523 -9.536)" fill="#002b52"/>
    <path id="Path_270" data-name="Path 270" d="M191.2,17.231h2.758l2.784-2.784h-8.326v8.326l2.784-2.784Z" transform="translate(-115.524 -8.858)" fill="#95222b"/>
    <rect id="Rectangle_103" data-name="Rectangle 103" width="3.124" height="3.124" transform="translate(110.303 0)" fill="#002b52"/>
    <rect id="Rectangle_104" data-name="Rectangle 104" width="3.124" height="3.124" transform="translate(105.627 0)" fill="#002b52"/>
    <path id="Path_271" data-name="Path 271" d="M387.979,123.029a5.477,5.477,0,0,1-.877,3.259,3.857,3.857,0,0,1-3.363,1.525,3.818,3.818,0,0,1-3.343-1.525,6.323,6.323,0,0,1,0-6.5,3.857,3.857,0,0,1,3.343-1.5,3.9,3.9,0,0,1,3.363,1.5,5.455,5.455,0,0,1,.877,3.238m-4.575-7.584a1.111,1.111,0,0,1-1.108,1.087,1.088,1.088,0,0,1-1.065-1.087,1.07,1.07,0,0,1,1.065-1.065,1.093,1.093,0,0,1,1.108,1.065m2.632,7.584c0-2.047-.773-3.071-2.3-3.071q-2.257,0-2.256,3.071c0,2.068.751,3.112,2.256,3.112,1.524,0,2.3-1.045,2.3-3.112m.168-7.584a1.076,1.076,0,1,1-2.152,0,1.076,1.076,0,0,1,2.152,0" transform="translate(-232.682 -70.13)" fill="#95222b"/>
    <path id="Path_272" data-name="Path 272" d="M409.945,133.544a4.518,4.518,0,0,1-1.274,3.363,4.569,4.569,0,0,1-3.426,1.274,4.13,4.13,0,0,1-2.236-.564l-.94-1.964a6.393,6.393,0,0,0,3.175.794,2.57,2.57,0,0,0,2.715-2.841v-8.858h1.985Z" transform="translate(-246.521 -76.488)" fill="#95222b"/>
    <path id="Path_273" data-name="Path 273" d="M432.042,127.748h-2.214a2.519,2.519,0,0,1-2.758-2.695v-10.78h1.985V124.99a.893.893,0,0,0,1.024,1h1.964Z" transform="translate(-261.85 -70.064)" fill="#95222b"/>
    <path id="Path_274" data-name="Path 274" d="M452.568,134.17h-14v-1.713h9.38V131.7a9.794,9.794,0,0,0-.439-3.447,2.681,2.681,0,0,0-2.758-1.755,4.291,4.291,0,0,0-3.175,1.609l-1.421-1.316a6.488,6.488,0,0,1,4.6-2.047,4.54,4.54,0,0,1,4.387,2.3,10.256,10.256,0,0,1,.836,4.659v.71h2.59Zm-6.748,2.925a1.086,1.086,0,1,1-2.172,0,1.086,1.086,0,0,1,2.172,0" transform="translate(-268.902 -76.487)" fill="#95222b"/>
    <path id="Path_275" data-name="Path 275" d="M482.082,127.813h-1.253a3.855,3.855,0,0,1-2.9-1.108,3.938,3.938,0,0,1-2.966,1.108h-1.5V126.1h1.379a1.863,1.863,0,0,0,2.089-2.131v-5.578h1.964v5.641a1.828,1.828,0,0,0,2.068,2.069h1.128Zm-4.575-12.368a1.106,1.106,0,0,1-1.086,1.087,1.075,1.075,0,0,1-1.066-1.087,1.057,1.057,0,0,1,1.066-1.065,1.088,1.088,0,0,1,1.086,1.065m2.8,0a1.076,1.076,0,1,1-2.152,0,1.076,1.076,0,0,1,2.152,0" transform="translate(-290.29 -70.13)" fill="#95222b"/>
    <path id="Path_276" data-name="Path 276" d="M503.381,127.748H502a3.855,3.855,0,0,1-2.9-1.128,3.8,3.8,0,0,1-2.946,1.128H494.46v-1.755h1.567a1.856,1.856,0,0,0,2.068-2.131v-9.589h1.985v9.693a1.8,1.8,0,0,0,2.047,2.026h1.253Z" transform="translate(-303.169 -70.064)" fill="#95222b"/>
    <path id="Path_277" data-name="Path 277" d="M521.434,124.05a3.59,3.59,0,0,1-1.065,2.653,3.95,3.95,0,0,1-2.862,1.045h-1.337v-1.755H517.4c1.358,0,2.047-.71,2.047-2.13v-9.589h1.985Z" transform="translate(-316.479 -70.064)" fill="#95222b"/>
    <path id="Path_278" data-name="Path 278" d="M536.173,155.484h2.758l2.784-2.784h-8.326v8.326l2.784-2.784Z" transform="translate(-327.037 -93.625)" fill="#95222b"/>
    <path id="Path_279" data-name="Path 279" d="M359.9,94.715H357.14L354.356,97.5h8.326V89.173L359.9,91.957Z" transform="translate(-217.267 -54.675)" fill="#95222b"/>
  </g>
</svg>
