<svg id="Group_197" data-name="Group 197" xmlns="http://www.w3.org/2000/svg" xmlns:xlink="http://www.w3.org/1999/xlink" width="214.678" height="67.406" viewBox="0 0 214.678 67.406">
  <defs>
    <clipPath id="clip-path">
      <rect id="Rectangle_114" data-name="Rectangle 114" width="214.678" height="67.406" fill="none"/>
    </clipPath>
  </defs>
  <g id="Group_196" data-name="Group 196" clip-path="url(#clip-path)">
    <path id="Path_280" data-name="Path 280" d="M304.327,14.4a6.527,6.527,0,0,0-6.618,6.5,6.629,6.629,0,0,0,6.618,6.622h4.346c0,2.266-2.162,3.432-3.871,3.446H275.057l-.055,0a3.738,3.738,0,0,1-3.8-3.619V14.409h-6.039A7.723,7.723,0,1,0,268.4,29.153a6.384,6.384,0,0,0,4.854,4.415,5.747,5.747,0,0,0,1.336.159h30.593c3.087,0,6.567-1.6,6.567-6.768V14.4Zm-36.2,11.652-.005.057,0,.04a5,5,0,0,1-2.962.969,4.75,4.75,0,0,1-4.709-4.982,4.741,4.741,0,0,1,4.709-4.971h2.965Zm40.548-1.29h-4.351a3.612,3.612,0,0,1-3.546-3.86,3.5,3.5,0,0,1,3.546-3.725h4.351Z" transform="translate(-157.809 -8.827)" fill="#002b52"/>
    <rect id="Rectangle_106" data-name="Rectangle 106" width="3.124" height="3.124" transform="translate(18.43 27.337)" fill="#002b52"/>
    <rect id="Rectangle_107" data-name="Rectangle 107" width="3.124" height="3.124" transform="translate(64.148 27.337)" fill="#002b52"/>
    <rect id="Rectangle_108" data-name="Rectangle 108" width="3.124" height="3.124" transform="translate(150.818)" fill="#002b52"/>
    <path id="Path_281" data-name="Path 281" d="M438.48,21.694c0-1.626.5-6.955,6.923-6.955h2.114l2.793-2.783h-5.492c-5.9,0-9.707,3.834-9.707,9.737a9.532,9.532,0,0,0,2.495,6.789H410.071V10.346L407,13.417V28.5c0,2.978-1.728,5.544-5.88,5.544V36.8c4.042,0,7.55-1.868,8.713-5.555H450.9V28.483h-6.137c-5.815-.344-6.281-5.217-6.281-6.789" transform="translate(-245.939 -6.343)" fill="#002b52"/>
    <path id="Path_282" data-name="Path 282" d="M64.216,13.407V23.853c0,3.729-3.19,4.641-5.082,4.641H39.1V11.952h-4.36a6.626,6.626,0,0,0-6.618,6.618c0,.039,0,.078,0,2.182h0v7.742H9.519c-2.8,0-6.446-.585-6.446-5.6V14.711L0,17.776V23.3c0,7.135,5.26,7.948,9.091,7.948h22.1l.009-10.5V20.73c0-2.08,0-2.12,0-2.16a3.6,3.6,0,0,1,3.546-3.842h1.27v0h.027V31.256H58.992c2.277,0,8.28-.571,8.28-7.766V10.364Z" transform="translate(0 -6.354)" fill="#002b52"/>
    <rect id="Rectangle_109" data-name="Rectangle 109" width="3.124" height="3.124" transform="translate(13.754 27.337)" fill="#002b52"/>
    <rect id="Rectangle_110" data-name="Rectangle 110" width="3.124" height="3.124" transform="translate(198.818)" fill="#002b52"/>
    <path id="Path_283" data-name="Path 283" d="M198.977,15.553l-2.4,2.4c4.686.912,5.418,5.314,5.418,6.77a6.774,6.774,0,0,1-7.252,6.967h-6.328v2.76h6.945c5.9-.009,9.708-3.823,9.708-9.727,0-4.588-2.3-7.91-6.091-9.169" transform="translate(-115.523 -9.536)" fill="#002b52"/>
    <path id="Path_284" data-name="Path 284" d="M191.2,17.231h2.758l2.784-2.784h-8.326v8.326l2.784-2.784Z" transform="translate(-115.524 -8.858)" fill="#007cd8"/>
    <rect id="Rectangle_111" data-name="Rectangle 111" width="3.124" height="3.124" transform="translate(110.303)" fill="#002b52"/>
    <rect id="Rectangle_112" data-name="Rectangle 112" width="3.124" height="3.124" transform="translate(105.627)" fill="#002b52"/>
    <path id="Path_285" data-name="Path 285" d="M379.854,127.813H378.5c-1.629,0-2.674-.48-3.112-1.463-.48.982-1.5,1.463-3.071,1.463-2.653,0-3.99-1.588-3.99-4.784,0-3.092,1.337-4.638,3.99-4.638h4.241v5.578c0,1.421.689,2.131,2.048,2.131h1.253ZM374.569,120h-2.131a1.822,1.822,0,0,0-1.713.815,4.451,4.451,0,0,0-.418,2.214,4.6,4.6,0,0,0,.418,2.235,2.174,2.174,0,0,0,3.426,0,4.593,4.593,0,0,0,.418-2.235Zm-1.817-4.554a1.1,1.1,0,0,1-2.193,0,1.1,1.1,0,0,1,2.193,0m2.8,0a1.107,1.107,0,0,1-1.087,1.087,1.088,1.088,0,0,1-1.065-1.087,1.07,1.07,0,0,1,1.065-1.065,1.088,1.088,0,0,1,1.087,1.065" transform="translate(-225.83 -70.13)" fill="#007cd8"/>
    <path id="Path_286" data-name="Path 286" d="M405.461,134.171h-1.253a3.854,3.854,0,0,1-2.9-1.108,3.936,3.936,0,0,1-2.966,1.108h-1.5v-1.713h1.379a1.862,1.862,0,0,0,2.089-2.131v-5.578h1.964v5.641a1.828,1.828,0,0,0,2.068,2.069h1.128Zm-4.47,2.925a1.107,1.107,0,0,1-1.087,1.087,1.074,1.074,0,0,1-1.065-1.087,1.057,1.057,0,0,1,1.065-1.065,1.088,1.088,0,0,1,1.087,1.065m2.8,0a1.106,1.106,0,0,1-1.086,1.087,1.088,1.088,0,0,1-1.065-1.087,1.07,1.07,0,0,1,1.065-1.065,1.088,1.088,0,0,1,1.086,1.065" transform="translate(-243.311 -76.488)" fill="#007cd8"/>
    <path id="Path_287" data-name="Path 287" d="M432,137.349h-.271a3.393,3.393,0,0,1-2.862-1.317,3.931,3.931,0,0,1-4.053,2.779,3.98,3.98,0,0,1-3.99-2.507,3.259,3.259,0,0,1-2.59,1.045h-.669v-1.755h.543a2.17,2.17,0,0,0,2.486-2.006,3.823,3.823,0,0,1,4.22-3.656,4.276,4.276,0,0,1,3.029.94,4.564,4.564,0,0,1,1.171,2.716,2.3,2.3,0,0,0,2.569,2.047l.418-.042Zm-4.993-2.987c0-1.86-.731-2.779-2.194-2.779-1.483,0-2.214.919-2.214,2.779s.73,2.778,2.214,2.778c1.463,0,2.194-.919,2.194-2.778" transform="translate(-256.025 -79.666)" fill="#007cd8"/>
    <path id="Path_288" data-name="Path 288" d="M463.568,124.533a3.018,3.018,0,0,1-1.108,2.633,4.626,4.626,0,0,1-2.757.648h-5.954v-1.755h5.7a5.353,5.353,0,0,0,1.462-.126,1.217,1.217,0,0,0,.669-1.253h-2.82a3.524,3.524,0,0,1-2.779-.9,3.68,3.68,0,0,1-.668-2.444c0-2.027,1.546-3.343,4.052-3.343a4.461,4.461,0,0,1,3.218,1.066,2.986,2.986,0,0,1,.982,2.277Zm-4.638-9.088a1.111,1.111,0,0,1-1.108,1.087,1.088,1.088,0,0,1-1.065-1.087,1.07,1.07,0,0,1,1.065-1.065,1.093,1.093,0,0,1,1.108,1.065m2.653,5.954c0-1.108-.732-1.651-2.215-1.651-1.4,0-2.088.543-2.088,1.651,0,.731.1,1.17.313,1.358a2.982,2.982,0,0,0,1.567.251h2.423Zm.147-5.954a1.076,1.076,0,1,1-2.152,0,1.076,1.076,0,0,1,2.152,0" transform="translate(-278.208 -70.13)" fill="#007cd8"/>
    <path id="Path_289" data-name="Path 289" d="M490.544,134.171h-2.966a4.343,4.343,0,0,1-4.68,4.011,4.127,4.127,0,0,1-2.235-.564l-.94-1.964a6.394,6.394,0,0,0,3.175.794,2.57,2.57,0,0,0,2.716-2.841v-8.858H487.6v7.667h2.945Z" transform="translate(-294.133 -76.488)" fill="#007cd8"/>
    <path id="Path_290" data-name="Path 290" d="M511.662,124.05A3.59,3.59,0,0,1,510.6,126.7a3.95,3.95,0,0,1-2.862,1.045H506.4v-1.755h1.232c1.358,0,2.048-.71,2.048-2.13v-9.589h1.984Z" transform="translate(-310.489 -70.064)" fill="#007cd8"/>
    <rect id="Rectangle_113" data-name="Rectangle 113" width="1.985" height="13.475" transform="translate(202.97 44.209)" fill="#007cd8"/>
    <path id="Path_291" data-name="Path 291" d="M536.173,155.5h2.758l2.784-2.784h-8.326v8.326l2.784-2.784Z" transform="translate(-327.037 -93.633)" fill="#007cd8"/>
    <path id="Path_292" data-name="Path 292" d="M348.794,94.7h-2.758l-2.784,2.784h8.326V89.155l-2.784,2.784Z" transform="translate(-210.459 -54.664)" fill="#007cd8"/>
  </g>
</svg>
