<svg xmlns="http://www.w3.org/2000/svg" width="187.063" height="47.165" viewBox="0 0 187.063 47.165">
  <g id="Group_142" data-name="Group 142" transform="translate(-3252.153 -3203.994)">
    <path id="Path_61" data-name="Path 61" d="M3316.575,3233.173v17.711h-2.605V3235.77Z" fill="#002b52"/>
    <path id="Path_62" data-name="Path 62" d="M3384.662,3234.5v16.385h-2.606V3237.73l-4.032,13.154h-2.869l-4.033-13.3v13.3h-2.6V3234.5h3.853l4.22,13.623,4.22-13.623Z" fill="#002b52"/>
    <path id="Path_63" data-name="Path 63" d="M3351.065,3233.173v17.711h-2.606v-7.26h-6.792v7.26h-2.605v-16.377h2.605v6.761h6.792V3235.8Z" fill="#002b52"/>
    <path id="Path_64" data-name="Path 64" d="M3404.551,3248.558h7.252v2.326h-9.859V3234.5h10.317l-2.322,2.343h-5.388v4.379h6.529v2.338h-6.529Z" fill="#002b52"/>
    <path id="Path_65" data-name="Path 65" d="M3309.83,3250.884h2.754l-5.939-16.385h-2.892l-5.94,16.385h2.754l1.348-4.087h6.567Zm-7.145-6.424,2.513-7.625,2.513,7.625Z" fill="#002b52"/>
    <path id="Path_66" data-name="Path 66" d="M3364.4,3250.884h2.755l-5.939-16.385h-2.892l-5.939,16.385h2.754l1.347-4.087h6.567Zm-7.143-6.424,2.513-7.625,2.513,7.625Z" fill="#002b52"/>
    <path id="Path_67" data-name="Path 67" d="M3282.1,3233.172V3244.2c0,3.835-1.634,6.938-6.777,6.956v0l-.023,0-.023,0v0c-5.142-.018-6.776-3.121-6.761-6.956v-9.715h2.606v9.627c0,2.817,1.238,4.681,4.178,4.689,2.941-.008,4.2-1.872,4.2-4.689v-8.334Z" fill="#002b52"/>
    <path id="Path_68" data-name="Path 68" d="M3327.294,3242.692c0-1.373.424-5.848,5.873-5.848h2.393l1.756-2.345h-4.647c-5,0-7.972,3.217-7.972,8.193s2.972,8.192,7.972,8.192h4.063v-2.347h-3.565c-5.449,0-5.873-4.474-5.873-5.845" fill="#002b52"/>
    <path id="Path_69" data-name="Path 69" d="M3297.118,3246.046a4.819,4.819,0,0,0-1.993-3.9,4.524,4.524,0,0,0,1.262-3.132,4.434,4.434,0,0,0-4.547-4.517h-6.648v16.385h7.115a4.858,4.858,0,0,0,4.811-4.837m-5.278-9.211a1.982,1.982,0,0,1,1.941,2.181,2,2,0,0,1-1.941,2.2H3287.8v-4.386Zm.412,11.712H3287.8v-4.988h4.454a2.506,2.506,0,0,1,0,4.988" fill="#002b52"/>
    <path id="Path_70" data-name="Path 70" d="M3399.7,3246.046a4.821,4.821,0,0,0-1.992-3.9,4.522,4.522,0,0,0,1.26-3.132,4.434,4.434,0,0,0-4.545-4.517h-6.646v16.385h7.114a4.858,4.858,0,0,0,4.809-4.837m-5.277-9.211a1.981,1.981,0,0,1,1.941,2.181,2,2,0,0,1-1.941,2.2h-4.042v-4.386Zm.411,11.712h-4.453v-4.988h4.453a2.506,2.506,0,0,1,0,4.988" fill="#002b52"/>
    <path id="Path_71" data-name="Path 71" d="M3425.958,3250.884l-3.835-7.569a4.32,4.32,0,0,0,3.091-4.3,4.537,4.537,0,0,0-4.546-4.518l-.036,0v0h-6.61v16.385h2.6v-7.325h2.972l3.505,7.325Zm-9.332-14.049h4.042a1.984,1.984,0,0,1,1.943,2.182,2,2,0,0,1-1.943,2.2h-4.042Z" fill="#002b52"/>
    <path id="Path_72" data-name="Path 72" d="M3385.943,3208.717a5.534,5.534,0,0,0-5.612,5.513,5.62,5.62,0,0,0,5.612,5.614h3.685a3.14,3.14,0,0,1-3.283,2.922h-36.462a3.188,3.188,0,0,1-3.273-3.094v-8.581L3344,3213.7v4.943a8.3,8.3,0,0,0,.819,3.86,5.4,5.4,0,0,0,4.664,2.6h37.181c2.618,0,5.569-1.36,5.569-5.739v-10.65Zm3.689,8.786h-3.689a3.062,3.062,0,0,1-3.007-3.273,2.965,2.965,0,0,1,3.007-3.159h3.689Z" fill="#002b52"/>
    <path id="Path_73" data-name="Path 73" d="M3439.039,3244.751a4.038,4.038,0,0,0-.541-1.15,4.11,4.11,0,0,0-.906-.953,4.252,4.252,0,0,0-1.27-.657q-.291-.089-.968-.274t-1.384-.384q-.708-.2-1.28-.361l-.656-.186a3.127,3.127,0,0,1-1.28-.712,1.724,1.724,0,0,1-.489-1.3,1.62,1.62,0,0,1,.26-.847,2.114,2.114,0,0,1,1.555-1,4.961,4.961,0,0,1,.912-.078l3.657-.006,2.32-2.346h-5.809v0l-.064,0a7.3,7.3,0,0,0-1.978.274,5.346,5.346,0,0,0-1.748.843,4.318,4.318,0,0,0-1.239,1.435,4.245,4.245,0,0,0-.468,2.048,4.7,4.7,0,0,0,.156,1.2,3.408,3.408,0,0,0,.531,1.117,3.876,3.876,0,0,0,1.01.953,5.384,5.384,0,0,0,1.592.69q1.541.438,2.591.712a17.085,17.085,0,0,1,1.843.58,2.2,2.2,0,0,1,.843.6,1.936,1.936,0,0,1,.385,1.325,2.149,2.149,0,0,1-.167.74,1.825,1.825,0,0,1-.541.756,2.891,2.891,0,0,1-.978.536,4.435,4.435,0,0,1-1.457.222h-5.384v2.346h5.353v0a8.669,8.669,0,0,0,2.029-.27,5.689,5.689,0,0,0,1.894-.865,4.473,4.473,0,0,0,1.343-1.523,4.61,4.61,0,0,0,.51-2.245A4.4,4.4,0,0,0,3439.039,3244.751Z" fill="#002b52"/>
    <g id="Group_31" data-name="Group 31">
      <path id="Path_74" data-name="Path 74" d="M3261.109,3234.862l-2.035,2.034a5.9,5.9,0,0,1-1.555,11.648h-5.366v2.34h5.889c5-.007,8.231-3.242,8.231-8.247,0-3.891-1.949-6.707-5.164-7.775" fill="#002b52"/>
      <path id="Path_75" data-name="Path 75" d="M3254.514,3236.86h2.338l2.361-2.361h-7.06v7.06l2.361-2.361Z" fill="#d72c00"/>
    </g>
    <path id="Union_6" data-name="Union 6" d="M3267.785,3229.823v-2.649h2.649v2.649Z" fill="#002b52"/>
    <path id="Union_7" data-name="Union 7" d="M3313.9,3229.823v-2.649h2.649v2.649Z" fill="#002b52"/>
    <path id="Union_8" data-name="Union 8" d="M3389.589,3206.643v-2.649h2.649v2.649Z" fill="#002b52"/>
    <path id="Path_79" data-name="Path 79" d="M3428.687,3217.01c0-1.378.423-5.9,5.87-5.9h1.792l2.368-2.359h-4.657c-5,0-8.23,3.25-8.23,8.256a8.079,8.079,0,0,0,2.115,5.756h-27.066v-15.378l-2.606,2.6v12.787c0,2.524-1.465,4.7-4.985,4.7v2.34c3.428,0,6.4-1.584,7.388-4.71h38.54v-2.343h-5.2C3429.082,3222.475,3428.687,3218.343,3428.687,3217.01Z" fill="#002b52"/>
    <path id="Path_80" data-name="Path 80" d="M3313.954,3209.975v8.856c0,3.163-2.7,3.935-4.309,3.935h-20.613v-14.025h-3.7a5.618,5.618,0,0,0-5.612,5.612c0,.033,0,.066,0,1.849h0v6.564h-19.5c-2.377,0-5.465-.5-5.465-4.747v-6.939l-2.6,2.6v4.688c0,6.05,4.46,6.739,7.708,6.739h22.455l.007-8.9h0v-.019h0c0-1.763,0-1.8,0-1.83a3.049,3.049,0,0,1,3.007-3.258h1.077v0h.023v14.016h23.089c1.931,0,7.021-.484,7.021-6.585v-11.13Z" fill="#002b52"/>
    <path id="Union_9" data-name="Union 9" d="M3263.821,3229.823v-2.649h2.649v2.649Z" fill="#002b52"/>
    <path id="Union_10" data-name="Union 10" d="M3434.008,3206.643v-2.649h2.649v2.649Z" fill="#002b52"/>
    <g id="Group_32" data-name="Group 32">
      <path id="Path_83" data-name="Path 83" d="M3330.266,3209.1l-2.034,2.035a5.9,5.9,0,0,1-1.555,11.647h-5.366v2.34h5.889c5-.007,8.231-3.241,8.231-8.247,0-3.89-1.949-6.707-5.165-7.775" fill="#002b52"/>
      <path id="Path_84" data-name="Path 84" d="M3323.672,3211.094h2.338l2.361-2.361h-7.06v7.06l2.361-2.361Z" fill="#d72c00"/>
    </g>
  </g>
</svg>
